<svg aria-hidden="true" style="position: absolute; width: 0; height: 0; overflow: hidden;" version="1.1"
    xmlns="http://www.w3.org/2000/svg" xmlns:xlink="http://www.w3.org/1999/xlink">
    <defs>
        <symbol id="icon-eye-off" viewBox="0 0 32 32">
            <path stroke-linejoin="round" stroke-linecap="round" stroke-miterlimit="4" stroke-width="3.2"
                d="M23.92 23.92c-2.279 1.737-5.055 2.7-7.92 2.747-9.333 0-14.667-10.667-14.667-10.667 1.659-3.091 3.959-5.791 6.747-7.92M13.2 5.653c0.918-0.215 1.857-0.322 2.8-0.32 9.333 0 14.667 10.667 14.667 10.667-0.809 1.514-1.775 2.94-2.88 4.253M18.827 18.827c-0.366 0.393-0.808 0.708-1.299 0.927s-1.020 0.336-1.557 0.346c-0.537 0.009-1.071-0.089-1.569-0.291s-0.95-0.5-1.33-0.88-0.679-0.832-0.88-1.33c-0.201-0.498-0.3-1.032-0.29-1.569s0.127-1.067 0.346-1.557 0.534-0.932 0.927-1.298">
            </path>
            <path stroke-linejoin="round" stroke-linecap="round" stroke-miterlimit="4" stroke-width="3.2"
                d="M1.333 1.333l29.333 29.333"></path>
        </symbol>
        <symbol id="icon-eye" viewBox="0 0 32 32">
            <path stroke-linecap="round" stroke-linejoin="round" stroke-width="2.88"
                d="M1.333 16S6.666 5.333 16 5.333 30.667 16 30.667 16 25.334 26.667 16 26.667 1.333 16 1.333 16z" />
            <path stroke-linecap="round" stroke-linejoin="round" stroke-width="2.88"
                d="M16 20a4 4 0 1 0 0-8 4 4 0 0 0 0 8z" />
        </symbol>
        <symbol id="icon-chevron-down" viewBox="0 0 32 32">
            <path stroke-linejoin="round" stroke-linecap="round" stroke-miterlimit="4" stroke-width="3.2"
                d="M8 12l8 8 8-8"></path>
        </symbol>
        <symbol id="icon-book-open" viewBox="0 0 32 32">
            <path stroke-linejoin="round" stroke-linecap="round" stroke-miterlimit="4" stroke-width="3"
                d="M29.333 8.267c0-1.493 0-2.24-0.291-2.811-0.256-0.502-0.664-0.91-1.165-1.165-0.571-0.291-1.317-0.291-2.811-0.291h-0.533c-2.987 0-4.48 0-5.621 0.581-1.004 0.511-1.819 1.327-2.331 2.331-0.581 1.141-0.581 2.634-0.581 5.621v15.467l0.133-0.2c0.926-1.389 1.389-2.084 2.001-2.587 0.542-0.445 1.166-0.779 1.837-0.983 0.758-0.23 1.593-0.23 3.262-0.23h1.833c1.494 0 2.24 0 2.811-0.291 0.502-0.256 0.91-0.664 1.165-1.165 0.291-0.57 0.291-1.317 0.291-2.811v-11.467z">
            </path>
            <path stroke-linejoin="round" stroke-linecap="round" stroke-miterlimit="4" stroke-width="3"
                d="M2.667 8.267c0-1.493 0-2.24 0.291-2.811 0.256-0.502 0.664-0.91 1.165-1.165 0.57-0.291 1.317-0.291 2.811-0.291h0.533c2.987 0 4.48 0 5.621 0.581 1.004 0.511 1.819 1.327 2.331 2.331 0.581 1.141 0.581 2.634 0.581 5.621v15.467l-0.133-0.2c-0.926-1.389-1.389-2.084-2.001-2.587-0.542-0.445-1.166-0.779-1.837-0.983-0.758-0.23-1.593-0.23-3.262-0.23h-1.833c-1.493 0-2.24 0-2.811-0.291-0.502-0.256-0.91-0.664-1.165-1.165-0.291-0.57-0.291-1.317-0.291-2.811v-11.467z">
            </path>
        </symbol>
        <symbol id="icon-chevron-up" viewBox="0 0 32 32">
            <path stroke-linejoin="round" stroke-linecap="round" stroke-miterlimit="4" stroke-width="3.2"
                d="M8 20l8-8 8 8"></path>
        </symbol>
        <symbol id="icon-close" viewBox="0 0 32 32">
            <path stroke-linejoin="round" stroke-linecap="round" stroke-miterlimit="4" stroke-width="2.5"
                d="M24 8l-16 16"></path>
            <path stroke-linejoin="round" stroke-linecap="round" stroke-miterlimit="4" stroke-width="2.5"
                d="M8 8l16 16"></path>
        </symbol>
        <symbol id="icon-eye-on" viewBox="0 0 32 32">
            <path stroke-linejoin="round" stroke-linecap="round" stroke-miterlimit="4" stroke-width="3.2"
                d="M23.92 23.92c-2.279 1.737-5.055 2.7-7.92 2.747-9.333 0-14.667-10.667-14.667-10.667 1.659-3.091 3.959-5.791 6.747-7.92M13.2 5.653c0.918-0.215 1.857-0.322 2.8-0.32 9.333 0 14.667 10.667 14.667 10.667-0.809 1.514-1.775 2.94-2.88 4.253M18.827 18.827c-0.366 0.393-0.808 0.708-1.299 0.927s-1.020 0.336-1.557 0.346-1.071-0.089-1.569-0.291c-0.498-0.201-0.95-0.5-1.33-0.88s-0.679-0.832-0.88-1.33c-0.201-0.498-0.3-1.032-0.29-1.569s0.127-1.067 0.346-1.557 0.534-0.932 0.927-1.298">
            </path>
        </symbol>
        <symbol id="icon-hover" viewBox="0 0 32 32">
            <path fill="#f4c550" style="fill: var(--color1, #f4c550); stroke: var(--color1, #f4c550)" stroke="#f4c550"
                stroke-linejoin="round" stroke-linecap="round" stroke-miterlimit="4" stroke-width="1.2308"
                d="M27.787 6.147c-0.681-0.681-1.49-1.222-2.379-1.591s-1.844-0.559-2.807-0.559-1.917 0.19-2.807 0.559c-0.89 0.369-1.699 0.909-2.38 1.591l-1.413 1.413-1.413-1.413c-1.376-1.376-3.241-2.148-5.187-2.148s-3.811 0.773-5.187 2.148c-1.376 1.376-2.148 3.241-2.148 5.187s0.773 3.811 2.148 5.187l11.787 11.787 11.787-11.787c0.681-0.681 1.222-1.49 1.591-2.379s0.559-1.844 0.559-2.807-0.19-1.917-0.559-2.807c-0.369-0.89-0.909-1.699-1.591-2.38z">
            </path>
        </symbol>
        <symbol id="icon-log-in-01" viewBox="0 0 32 32">
            <path stroke-linejoin="round" stroke-linecap="round" stroke-miterlimit="4" stroke-width="3.2"
                d="M20 4h1.6c2.24 0 3.36 0 4.216 0.436 0.753 0.383 1.364 0.995 1.748 1.748 0.436 0.856 0.436 1.976 0.436 4.216v11.2c0 2.24 0 3.36-0.436 4.216-0.384 0.753-0.995 1.364-1.748 1.748-0.856 0.436-1.976 0.436-4.216 0.436h-1.6">
            </path>
            <path stroke-linejoin="round" stroke-linecap="round" stroke-miterlimit="4" stroke-width="3.2"
                d="M13.333 9.333l6.667 6.667M20 16l-6.667 6.667M20 16h-16"></path>
        </symbol>
        <symbol id="icon-log-out" viewBox="0 0 32 32">
            <path stroke-linejoin="round" stroke-linecap="round" stroke-miterlimit="4" stroke-width="3.2"
                d="M12 4h-1.6c-2.24 0-3.36 0-4.216 0.436-0.753 0.383-1.364 0.995-1.748 1.748-0.436 0.856-0.436 1.976-0.436 4.216v11.2c0 2.24 0 3.36 0.436 4.216 0.384 0.753 0.995 1.364 1.748 1.748 0.856 0.436 1.976 0.436 4.216 0.436h1.6">
            </path>
            <path stroke-linejoin="round" stroke-linecap="round" stroke-miterlimit="4" stroke-width="3.2"
                d="M18.667 9.333l-6.667 6.667M12 16l6.667 6.667M12 16h16"></path>
        </symbol>
        <symbol id="icon-normal" viewBox="0 0 32 32">
            <path stroke-linejoin="round" stroke-linecap="round" stroke-miterlimit="4" stroke-width="2.4615"
                d="M27.787 6.147c-0.681-0.681-1.49-1.222-2.379-1.591s-1.844-0.559-2.807-0.559-1.917 0.19-2.807 0.559c-0.89 0.369-1.699 0.909-2.38 1.591l-1.413 1.413-1.413-1.413c-1.376-1.376-3.241-2.148-5.187-2.148s-3.811 0.773-5.187 2.148c-1.376 1.376-2.148 3.241-2.148 5.187s0.773 3.811 2.148 5.187l11.787 11.787 11.787-11.787c0.681-0.681 1.222-1.49 1.591-2.379s0.559-1.844 0.559-2.807-0.19-1.917-0.559-2.807c-0.369-0.89-0.909-1.699-1.591-2.38z">
            </path>
        </symbol>
        <symbol id="icon-Star-2" viewBox="0 0 32 32">
            <path fill="#ffc531" style="fill: var(--color2, #ffc531); stroke: var(--color2, #ffc531)" stroke="#ffc531"
                stroke-linejoin="miter" stroke-linecap="butt" stroke-miterlimit="4" stroke-width="2.4"
                d="M19.6 10.395c0.279 0.528 0.758 0.917 1.324 1.084l0.246 0.057 7.6 1.313-5.375 5.535c-0.416 0.428-0.637 1.003-0.621 1.592l0.022 0.254 1.098 7.635-6.922-3.402-0.234-0.1c-0.476-0.169-0.996-0.169-1.473 0l-0.234 0.1-6.924 3.402 1.1-7.635c0.085-0.591-0.074-1.187-0.434-1.654l-0.166-0.191-5.377-5.535 7.602-1.313c0.588-0.102 1.106-0.437 1.439-0.924l0.131-0.217 3.6-6.822 3.6 6.822z">
            </path>
        </symbol>
        <symbol id="icon-apple" viewBox="0 0 32 32">
            <path
                d="M24.734 17.003c-0.040-4.053 3.305-5.996 3.454-6.093-1.88-2.751-4.808-3.127-5.851-3.171-2.492-0.252-4.862 1.467-6.127 1.467-1.261 0-3.213-1.43-5.28-1.392-2.716 0.040-5.221 1.579-6.619 4.012-2.822 4.897-0.723 12.151 2.028 16.123 1.344 1.944 2.947 4.127 5.051 4.049 2.026-0.081 2.793-1.311 5.242-1.311s3.138 1.311 5.283 1.271c2.18-0.041 3.562-1.981 4.897-3.931 1.543-2.255 2.179-4.439 2.216-4.551-0.048-0.022-4.252-1.632-4.294-6.473zM20.705 5.11c1.117-1.355 1.871-3.235 1.665-5.11-1.609 0.066-3.559 1.072-4.713 2.423-1.036 1.199-1.942 3.113-1.699 4.951 1.796 0.14 3.629-0.913 4.747-2.264z">
            </path>
        </symbol>
        <symbol id="icon-imac" viewBox="0 0 26 32">
            <path
                d="M19.7 0.778c0 1.566-0.561 3.029-1.678 4.382-1.349 1.609-2.98 2.539-4.75 2.392-0.023-0.188-0.036-0.386-0.036-0.594 0-1.503 0.641-3.113 1.781-4.428 0.569-0.666 1.292-1.22 2.169-1.662 0.875-0.435 1.703-0.676 2.482-0.717 0.010 0.093 0.018 0.186 0.023 0.279 0.006 0.116 0.009 0.232 0.009 0.347z">
            </path>
            <path
                d="M25.622 24.557c-0.464 1.094-1.014 2.101-1.65 3.027-0.868 1.262-1.578 2.136-2.126 2.621-0.849 0.796-1.758 1.204-2.732 1.228-0.699 0-1.542-0.203-2.523-0.615-0.985-0.41-1.889-0.613-2.717-0.613-0.868 0-1.798 0.203-2.794 0.613-0.997 0.412-1.8 0.626-2.414 0.648-0.934 0.041-1.865-0.379-2.794-1.26-0.593-0.528-1.335-1.432-2.223-2.714-0.953-1.369-1.737-2.956-2.351-4.765-0.658-1.954-0.987-3.847-0.987-5.679 0-2.099 0.444-3.909 1.335-5.426 0.7-1.219 1.63-2.18 2.795-2.885s2.424-1.065 3.779-1.088c0.742 0 1.714 0.234 2.923 0.694 1.205 0.462 1.979 0.696 2.318 0.696 0.254 0 1.113-0.274 2.571-0.819 1.378-0.506 2.541-0.716 3.494-0.633 2.582 0.213 4.522 1.251 5.812 3.123-2.309 1.428-3.452 3.428-3.429 5.993 0.021 1.998 0.731 3.661 2.127 4.981 0.633 0.613 1.339 1.086 2.126 1.423-0.171 0.505-0.35 0.988-0.542 1.452z">
            </path>
        </symbol>
    </defs>
</svg>