<svg width="16" height="15" viewBox="0 0 16 15" fill="none" xmlns="http://www.w3.org/2000/svg">
<path d="M9.7998 4.69727C9.93918 4.96131 10.1789 5.15595 10.4619 5.23926L10.585 5.26758L14.3848 5.92383L11.6973 8.69141C11.4895 8.9053 11.3788 9.19279 11.3867 9.4873L11.3975 9.61426L11.9463 13.4316L8.48535 11.7305L8.36816 11.6807C8.13008 11.5961 7.86992 11.5961 7.63184 11.6807L7.51465 11.7305L4.05273 13.4316L4.60254 9.61426C4.64501 9.31888 4.56551 9.02085 4.38574 8.78711L4.30273 8.69141L1.61426 5.92383L5.41504 5.26758C5.70911 5.21664 5.96806 5.04894 6.13477 4.80566L6.2002 4.69727L8 1.28613L9.7998 4.69727Z" fill="#FFC531" stroke="#FFC531" stroke-width="1.2"/>
</svg>
